<svg version="1.0" xmlns="http://www.w3.org/2000/svg"
 width="275.000000pt" height="183.000000pt" viewBox="0 0 275.000000 183.000000"
 preserveAspectRatio="xMidYMid meet">
<g transform="translate(0.000000,183.000000) scale(0.100000,-0.100000)"
fill="#000000" stroke="none">
<path d="M904 1121 c-77 -35 -104 -100 -104 -254 l0 -99 -32 7 c-18 4 -51 13
-73 21 -52 18 -57 18 -53 -4 2 -11 -3 -26 -10 -34 -10 -13 -4 -22 36 -60 26
-25 54 -47 61 -49 9 -3 6 -23 -13 -81 -14 -42 -26 -86 -26 -96 0 -26 -56 -46
-103 -37 -72 14 -118 61 -138 140 -6 24 -7 26 -8 7 -1 -32 33 -95 69 -125 35
-30 103 -43 144 -27 16 6 30 9 32 7 2 -2 1 -25 -2 -50 l-7 -47 -46 0 c-107 0
-191 81 -199 192 -3 34 -11 68 -18 76 -18 17 -17 50 1 82 13 22 14 23 15 5 0
-17 2 -18 10 -5 6 8 7 32 4 54 -4 27 -3 36 5 32 6 -4 11 -14 11 -23 0 -15 2
-14 18 0 10 10 22 14 25 10 9 -8 9 30 1 51 -3 8 -12 12 -19 9 -9 -3 -19 7 -28
29 l-14 33 -8 -35 c-10 -47 -14 -53 -31 -39 -12 9 -14 5 -14 -25 0 -20 -5 -45
-12 -55 -9 -15 -8 -31 6 -75 10 -31 22 -58 27 -62 5 -3 9 -24 9 -47 0 -23 5
-59 10 -79 21 -73 114 -169 164 -168 14 1 8 6 -17 14 -39 14 -71 36 -63 43 2
3 19 -3 36 -12 22 -11 50 -16 86 -13 37 2 54 -1 54 -9 0 -6 -10 -14 -22 -16
-23 -4 -23 -4 1 -6 32 -1 52 -29 38 -53 -9 -14 -7 -22 12 -42 25 -27 51 -25
51 5 0 10 5 19 11 19 6 0 9 -9 6 -19 -7 -30 22 -35 49 -10 20 18 23 29 18 59
-4 25 -2 41 8 50 11 11 9 18 -14 42 -33 36 -42 77 -36 171 3 50 13 87 30 122
35 68 74 109 96 100 9 -4 38 -10 65 -12 l47 -6 16 -53 c8 -30 20 -54 25 -54 5
0 40 30 79 66 64 61 69 68 55 84 -8 9 -12 19 -9 23 3 3 3 10 -1 16 -4 7 -20 4
-46 -9 -21 -11 -39 -18 -39 -16 0 3 12 26 26 52 22 40 24 50 14 74 -7 16 -20
36 -30 45 -11 10 -22 30 -25 46 -4 18 -11 26 -18 22 -7 -4 -8 0 -4 11 4 11 3
15 -4 10 -7 -4 -9 0 -5 14 7 21 -19 45 -77 70 -37 16 -55 15 -103 -7z m116
-13 c33 -17 46 -30 48 -48 7 -54 24 -91 48 -100 12 -5 30 -23 39 -39 21 -41 5
-74 -47 -97 -36 -16 -49 -17 -136 -6 -52 7 -101 17 -109 23 -8 8 -13 8 -13 1
0 -14 58 -62 95 -78 17 -7 24 -13 17 -14 -18 0 -52 18 -79 43 -28 25 -30 11
-4 -22 19 -25 19 -25 -5 -56 -13 -17 -35 -57 -50 -89 -37 -80 -39 -194 -5
-252 16 -26 24 -56 25 -91 l1 -51 -40 1 c-32 2 -41 -2 -51 -22 l-12 -23 -17
25 c-21 32 -11 50 24 44 27 -5 61 7 61 22 0 5 -17 7 -38 4 -53 -7 -72 14 -72
78 0 44 3 51 25 59 14 5 32 7 42 3 11 -5 14 -3 8 6 -5 9 -19 11 -41 8 -32 -5
-34 -4 -34 23 0 15 11 61 25 102 14 40 25 74 25 76 0 1 9 2 20 2 13 0 20 7 20
19 0 14 -6 17 -25 13 -40 -7 -71 6 -98 42 -25 32 -26 34 -5 28 16 -4 20 -2 15
10 -8 21 24 29 66 17 73 -21 72 -22 72 104 0 61 3 124 7 139 16 55 88 116 138
118 9 0 36 -10 60 -22z m-340 -318 c12 -8 11 -10 -7 -10 -13 0 -23 5 -23 10 0
13 11 13 30 0z m527 3 c-4 -3 -2 -12 5 -20 9 -11 2 -23 -32 -58 -54 -56 -93
-61 -108 -16 -9 27 -8 32 16 48 52 35 143 70 119 46z m-127 -13 c0 -5 -11 -12
-25 -16 -32 -8 -97 4 -90 17 8 12 115 12 115 -1z m-37 -37 c-13 -2 -33 -2 -45
0 -13 2 -3 4 22 4 25 0 35 -2 23 -4z m-222 -546 c-16 -16 -26 0 -10 19 9 11
15 12 17 4 2 -6 -1 -17 -7 -23z"/>
<path class="eyes" d="M872 1026 c-31 -46 -31 -113 2 -127 17 -8 29 -8 46 1 20 11 22 17 15
53 -3 23 -7 52 -8 65 -3 41 -30 45 -55 8z m45 -31 c3 -33 2 -37 -12 -25 -18
15 -20 50 -2 50 8 0 7 4 -3 11 -11 8 -12 10 -1 7 8 -2 16 -21 18 -43z m-11
-83 c-10 -2 -22 0 -28 6 -6 6 0 7 19 4 21 -5 23 -7 9 -10z"/>
<path d="M1105 860 c-3 -5 -1 -10 4 -10 6 0 11 5 11 10 0 6 -2 10 -4 10 -3 0
-8 -4 -11 -10z"/>
<path d="M1040 850 c0 -5 5 -10 11 -10 5 0 7 5 4 10 -3 6 -8 10 -11 10 -2 0
-4 -4 -4 -10z"/>
<path d="M720 236 c0 -2 7 -6 15 -10 8 -3 15 -1 15 4 0 6 -7 10 -15 10 -8 0
-15 -2 -15 -4z"/>
<path d="M1183 766 c0 -27 11 -34 23 -15 3 6 0 18 -9 26 -13 13 -14 12 -14
-11z"/>
<path class="tail-2" d="M2209 809 c-6 -12 -15 -51 -20 -87 -12 -80 -30 -112 -65 -112 -35 0
-96 55 -110 99 l-12 36 -1 -34 c-1 -41 27 -89 68 -116 36 -23 39 -35 11 -35
-25 0 -25 -2 0 -50 18 -35 25 -40 55 -40 27 0 34 4 37 22 3 20 5 18 28 -14 29
-43 45 -39 80 18 29 47 23 101 -24 209 -22 50 -33 88 -30 102 8 29 -2 30 -17
2z"/>
<path d="M1365 780 c-4 -6 -11 -8 -16 -5 -5 4 -9 -2 -9 -11 0 -16 1 -16 20 1
11 10 20 20 20 22 0 7 -9 3 -15 -7z"/>
<path d="M1265 750 c10 -11 20 -20 23 -20 3 0 -3 9 -13 20 -10 11 -20 20 -23
20 -3 0 3 -9 13 -20z"/>
<path d="M1331 716 c10 -9 69 -36 69 -32 0 6 -55 36 -66 36 -4 0 -5 -2 -3 -4z"/>
<path d="M1750 697 c-29 -15 -32 -35 -8 -50 12 -8 26 -5 57 16 23 15 41 32 41
37 0 14 -60 12 -90 -3z"/>
<path d="M1421 652 c11 -29 41 -71 52 -72 4 0 7 7 7 15 0 8 -7 15 -15 15 -8 0
-19 9 -25 20 -13 23 2 27 23 6 7 -8 18 -11 24 -8 5 4 -9 16 -33 28 l-42 20 9
-24z"/>
<path d="M1524 658 l-19 -23 23 19 c21 18 27 26 19 26 -2 0 -12 -10 -23 -22z"/>
<path d="M1677 634 c-8 -8 3 -34 14 -34 5 0 9 9 9 20 0 19 -11 26 -23 14z"/>
<path d="M1903 615 c-18 -13 -21 -23 -18 -66 1 -28 5 -53 8 -55 3 -3 20 -1 38
4 43 10 50 47 19 97 -12 19 -23 35 -24 35 -1 0 -11 -7 -23 -15z m30 -73 c-3
-12 -9 -22 -14 -22 -11 0 -12 54 -2 64 11 11 23 -19 16 -42z"/>
<path d="M1621 602 c-6 -11 -12 -35 -13 -54 -3 -27 0 -33 17 -33 16 0 21 8 23
44 4 51 -11 74 -27 43z m10 -65 c-8 -8 -11 -4 -11 14 0 33 14 47 18 19 2 -12
-1 -27 -7 -33z"/>
<path d="M1081 594 c0 -11 3 -14 6 -6 3 7 2 16 -1 19 -3 4 -6 -2 -5 -13z"/>
<path d="M1747 603 c-10 -10 -8 -33 3 -33 5 0 14 9 20 20 8 15 8 20 -3 20 -8
0 -17 -3 -20 -7z"/>
<path d="M1072 525 c0 -16 2 -22 5 -12 2 9 2 23 0 30 -3 6 -5 -1 -5 -18z"/>
<path d="M1590 476 c0 -3 16 -17 35 -32 31 -24 44 -27 99 -25 72 2 119 -7 110
-21 -9 -14 90 38 105 55 10 13 9 15 -11 10 -13 -4 -27 -12 -31 -20 -7 -11 -12
-12 -23 -2 -10 8 -38 10 -93 5 -59 -5 -87 -3 -115 9 -28 12 -36 12 -36 3 0 -8
-5 -5 -11 5 -9 15 -29 24 -29 13z"/>
<g transform="translate(0 40)" class="left-leg">
<path d="M1042 435 c-14 -30 -99 -94 -127 -95 -20 -1 -20 -1 0 -10 36 -14 48
-35 33 -60 -11 -18 -11 -23 5 -34 21 -16 176 -31 208 -21 31 10 52 32 39 40
-5 3 -10 1 -10 -5 0 -6 -5 -8 -12 -4 -6 4 -8 3 -5 -3 4 -6 -3 -13 -16 -17 -33
-9 -49 -7 -42 4 4 6 11 8 16 5 5 -4 9 -2 9 3 0 5 10 13 21 18 20 9 18 11 -19
28 -40 18 -40 19 -25 42 19 29 12 62 -23 103 -31 37 -38 38 -52 6z m70 -48
c15 -29 1 -65 -32 -82 -38 -19 -60 -10 -60 25 0 16 -5 32 -11 36 -7 4 2 19 22
40 31 32 34 33 52 16 10 -9 23 -25 29 -35z m13 -107 l27 -10 -25 -20 c-29 -23
-43 -24 -77 -5 -24 13 -24 14 -5 20 11 4 27 10 35 15 8 5 16 9 17 9 1 1 14 -4
28 -9z"/>
</g>
<path d="M2075 393 c-7 -31 -45 -109 -75 -159 -22 -34 -22 -36 -3 -26 11 6 28
23 37 37 21 32 41 32 69 0 22 -25 92 -41 116 -26 13 8 43 92 36 99 -3 3 -5 0
-5 -6 0 -7 -18 -24 -40 -38 l-41 -27 -24 23 c-38 36 -47 74 -25 103 18 23 18
23 -10 34 -26 10 -29 8 -35 -14z"/>
<path d="M1900 378 c-42 -15 -69 -19 -117 -14 l-62 5 11 -30 c10 -29 8 -68 -6
-99 -5 -12 -1 -16 17 -15 30 0 52 18 67 55 16 38 34 38 57 0 22 -38 30 -38 38
3 4 17 18 51 31 75 14 23 24 42 22 41 -2 0 -28 -10 -58 -21z"/>
<path d="M1768 383 c12 -2 30 -2 40 0 9 3 -1 5 -23 4 -22 0 -30 -2 -17 -4z"/>
<path d="M2147 372 c-21 -23 -21 -42 -3 -68 15 -19 15 -19 36 1 16 16 19 28
14 53 -7 36 -23 41 -47 14z"/>
<path d="M1694 352 c-6 -4 -9 -24 -6 -45 3 -31 7 -35 18 -26 24 20 12 87 -12
71z"/>
<path d="M1987 354 c-8 -8 3 -34 14 -34 5 0 9 9 9 20 0 19 -11 26 -23 14z"/>
<path d="M1931 291 c-21 -44 -19 -51 9 -44 18 5 30 30 30 66 0 29 -19 19 -39
-22z"/>
</g>
</svg>
